<svg width="53" height="23" viewBox="0 0 55 23" fill="none" xmlns="http://www.w3.org/2000/svg">
<g id="logo">
<path d="M0.727997 0.192001H4.472V18H0.727997V0.192001Z" fill="#252B42"/>
<path d="M14.1907 18.192C12.8307 18.192 11.6067 17.912 10.5187 17.352C9.44675 16.776 8.60675 15.984 7.99875 14.976C7.39075 13.968 7.08675 12.824 7.08675 11.544C7.08675 10.264 7.39075 9.12 7.99875 8.112C8.60675 7.104 9.44675 6.32 10.5187 5.76C11.6067 5.184 12.8307 4.896 14.1907 4.896C15.5507 4.896 16.7667 5.184 17.8387 5.76C18.9107 6.32 19.7507 7.104 20.3587 8.112C20.9667 9.12 21.2707 10.264 21.2707 11.544C21.2707 12.824 20.9667 13.968 20.3587 14.976C19.7507 15.984 18.9107 16.776 17.8387 17.352C16.7667 17.912 15.5507 18.192 14.1907 18.192ZM14.1907 15.12C15.1507 15.12 15.9347 14.8 16.5427 14.16C17.1667 13.504 17.4787 12.632 17.4787 11.544C17.4787 10.456 17.1667 9.592 16.5427 8.952C15.9347 8.296 15.1507 7.968 14.1907 7.968C13.2307 7.968 12.4387 8.296 11.8147 8.952C11.1907 9.592 10.8787 10.456 10.8787 11.544C10.8787 12.632 11.1907 13.504 11.8147 14.16C12.4387 14.8 13.2307 15.12 14.1907 15.12Z" fill="#252B42"/>
<path d="M37.1933 5.088V15.84C37.1933 18.208 36.5773 19.968 35.3453 21.12C34.1133 22.272 32.3133 22.848 29.9453 22.848C28.6973 22.848 27.5133 22.696 26.3933 22.392C25.2733 22.088 24.3453 21.648 23.6093 21.072L25.0973 18.384C25.6413 18.832 26.3293 19.184 27.1613 19.44C27.9933 19.712 28.8253 19.848 29.6573 19.848C30.9533 19.848 31.9053 19.552 32.5133 18.96C33.1373 18.384 33.4493 17.504 33.4493 16.32V15.768C32.4733 16.84 31.1133 17.376 29.3693 17.376C28.1853 17.376 27.0973 17.12 26.1053 16.608C25.1293 16.08 24.3533 15.344 23.7773 14.4C23.2013 13.456 22.9133 12.368 22.9133 11.136C22.9133 9.904 23.2013 8.816 23.7773 7.872C24.3533 6.928 25.1293 6.2 26.1053 5.688C27.0973 5.16 28.1853 4.896 29.3693 4.896C31.2413 4.896 32.6653 5.512 33.6413 6.744V5.088H37.1933ZM30.1133 14.304C31.1053 14.304 31.9133 14.016 32.5373 13.44C33.1773 12.848 33.4973 12.08 33.4973 11.136C33.4973 10.192 33.1773 9.432 32.5373 8.856C31.9133 8.264 31.1053 7.968 30.1133 7.968C29.1213 7.968 28.3053 8.264 27.6653 8.856C27.0253 9.432 26.7053 10.192 26.7053 11.136C26.7053 12.08 27.0253 12.848 27.6653 13.44C28.3053 14.016 29.1213 14.304 30.1133 14.304Z" fill="#252B42"/>
<path d="M46.922 18.192C45.562 18.192 44.338 17.912 43.25 17.352C42.178 16.776 41.338 15.984 40.73 14.976C40.122 13.968 39.818 12.824 39.818 11.544C39.818 10.264 40.122 9.12 40.73 8.112C41.338 7.104 42.178 6.32 43.25 5.76C44.338 5.184 45.562 4.896 46.922 4.896C48.282 4.896 49.498 5.184 50.57 5.76C51.642 6.32 52.482 7.104 53.09 8.112C53.698 9.12 54.002 10.264 54.002 11.544C54.002 12.824 53.698 13.968 53.09 14.976C52.482 15.984 51.642 16.776 50.57 17.352C49.498 17.912 48.282 18.192 46.922 18.192ZM46.922 15.12C47.882 15.12 48.666 14.8 49.274 14.16C49.898 13.504 50.21 12.632 50.21 11.544C50.21 10.456 49.898 9.592 49.274 8.952C48.666 8.296 47.882 7.968 46.922 7.968C45.962 7.968 45.17 8.296 44.546 8.952C43.922 9.592 43.61 10.456 43.61 11.544C43.61 12.632 43.922 13.504 44.546 14.16C45.17 14.8 45.962 15.12 46.922 15.12Z" fill="#252B42"/>
</g>
</svg>
