<svg width="32" height="32" viewBox="0 0 32 32" fill="none" xmlns="http://www.w3.org/2000/svg">
<g id="003-cardiogram" clip-path="url(#clip0_3_213)">
<g id="Group">
<path id="Vector" d="M15.9909 4.21824C9.0159 -1.88242 0.14726 3.4778 0.00183389 10.7444C-0.0352258 12.5964 0.499358 14.4003 1.56346 16.0633H8.46069L9.68747 14.0186C10.0437 13.425 10.9058 13.4059 11.2822 13.9977L13.8705 18.0651L17.6436 10.1C17.9726 9.40497 18.9532 9.38291 19.3161 10.0569L22.5504 16.0633H30.4184C36.2468 6.95403 24.7279 -3.42336 15.9909 4.21824Z" fill="white"/>
<path id="Vector_2" d="M21.1651 17.4452L18.5443 12.578L14.8383 20.4018C14.523 21.0674 13.5956 21.1252 13.2002 20.5037L10.5148 16.2839L9.79528 17.483C9.62585 17.7654 9.32075 17.9381 8.99146 17.9381H3.04642C3.23278 18.1332 2.23954 17.1419 15.3297 30.1643C15.6953 30.5281 16.2863 30.5282 16.652 30.1643C29.5408 17.3423 28.7493 18.1328 28.9353 17.9381H21.9905C21.6456 17.9382 21.3286 17.7488 21.1651 17.4452Z" fill="white"/>
</g>
</g>
<defs>
<clipPath id="clip0_3_213">
<rect width="32" height="32" fill="white"/>
</clipPath>
</defs>
</svg>
