<svg width="32" height="32" viewBox="0 0 32 32" fill="none" xmlns="http://www.w3.org/2000/svg">
<g id="005-medical-history" clip-path="url(#clip0_3_234)">
<path id="Vector" d="M6.34836 32H25.6516C26.8003 32 27.7565 31.1215 27.7565 30.0418V6.62852C27.7565 5.54863 26.8003 4.66086 25.6516 4.66086H22.4696V6.44863C22.4742 6.75896 22.2293 7.01575 21.9193 7.02608H10.0429C9.72662 7.01847 9.47119 6.76493 9.46086 6.44863V4.66086H6.34836C5.19972 4.66086 4.24347 5.54863 4.24347 6.62852V30.0418C4.24347 31.1215 5.19972 32 6.34836 32ZM10.6435 14.0522C10.6435 13.7448 10.8927 13.4956 11.2 13.4956H14.0522V10.6435C14.0522 10.3361 14.3013 10.0869 14.6087 10.0869H17.3913C17.6986 10.0869 17.9478 10.3361 17.9478 10.6435V13.4956H20.8C21.1073 13.4956 21.3565 13.7448 21.3565 14.0522V16.8348C21.3565 17.1421 21.1073 17.3913 20.8 17.3913H17.9478V20.2435C17.9478 20.5508 17.6986 20.8 17.3913 20.8H14.6087C14.3013 20.8 14.0522 20.5508 14.0522 20.2435V17.3913H11.2C10.8927 17.3913 10.6435 17.1421 10.6435 16.8348V14.0522ZM10.8701 23.6522H21.1299C21.4375 23.6522 21.6864 23.9013 21.6864 24.2087C21.6864 24.516 21.4375 24.7652 21.1299 24.7652H10.8701C10.5625 24.7652 10.3136 24.516 10.3136 24.2087C10.3136 23.9013 10.5625 23.6522 10.8701 23.6522ZM8.78314 26.4348H23.2168C23.5244 26.4348 23.7734 26.684 23.7734 26.9913C23.7734 27.2986 23.5244 27.5478 23.2168 27.5478H8.78314C8.47553 27.5478 8.22662 27.2986 8.22662 26.9913C8.22662 26.684 8.47553 26.4348 8.78314 26.4348Z" fill="white"/>
<path id="Vector_2" d="M21.3565 2.15652H18.7522C18.4902 2.15625 18.2636 1.97337 18.2084 1.71712C17.9932 0.722556 17.0486 1.23676e-06 15.9622 1.23676e-06H15.9554C14.8981 -0.00108572 13.9745 0.714403 13.7114 1.73832C13.6481 1.98424 13.4264 2.15625 13.1723 2.15652H10.5739V5.91304H21.3565V2.15652Z" fill="white"/>
<path id="Vector_3" d="M15.1652 16.8348V19.687H16.8348V16.8348C16.8348 16.5275 17.084 16.2783 17.3913 16.2783H20.2435V14.6087H17.3913C17.084 14.6087 16.8348 14.3595 16.8348 14.0522V11.2H15.1652V14.0522C15.1652 14.3595 14.916 14.6087 14.6087 14.6087H11.7565V16.2783H14.6087C14.916 16.2783 15.1652 16.5275 15.1652 16.8348Z" fill="white"/>
</g>
<defs>
<clipPath id="clip0_3_234">
<rect width="32" height="32" fill="white"/>
</clipPath>
</defs>
</svg>
